<?xml version="1.0" encoding="UTF-8"?>
<svg version="1.1" xmlns="http://www.w3.org/2000/svg" width="640" height="502">
<path d="M0 0 C211.2 0 422.4 0 640 0 C640 165.66 640 331.32 640 502 C428.8 502 217.6 502 0 502 C0 336.34 0 170.68 0 0 Z " fill="#E1E1E1" transform="translate(0,0)"/>
<path d="M0 0 C4.99507956 0.58082321 9.18467104 2.17056233 13.6875 4.3125 C14.41211426 4.6542627 15.13672852 4.99602539 15.88330078 5.34814453 C26.11144849 10.33041798 35.54957122 16.69971415 45 23 C50.28009078 22.63585581 55.08206421 21.53679253 60.1875 20.125 C76.83807201 15.78439 93.84486213 14.36339215 111 14 C111.93730957 13.97808594 112.87461914 13.95617187 113.84033203 13.93359375 C141.71635783 13.37298991 172.40440085 13.29190987 199.0546875 22.328125 C204.13580853 23.48721362 207.48682325 22.4759409 211.8125 19.77734375 C213.2141942 18.83942946 214.60978669 17.8923491 216 16.9375 C217.5072675 15.93341964 219.01641154 14.93215098 220.52734375 13.93359375 C221.27741699 13.43714355 222.02749023 12.94069336 222.80029297 12.42919922 C243.20006718 -0.8249937 243.20006718 -0.8249937 252 0 C251.45349171 5.26931873 249.64074946 9.04397732 247.1875 13.625 C240.32137008 27.09364949 235.26861164 41.25990209 239.72363281 56.47070312 C241.65186199 61.60298228 244.11350081 66.45947868 246.63085938 71.32373047 C265.34440405 107.90323774 281.43127874 152.88361719 269.265625 194.26953125 C264.46677497 208.41428983 258.76563611 221.53434987 249 233 C248.22011719 233.93714844 247.44023437 234.87429688 246.63671875 235.83984375 C233.32354968 251.38786764 216.02702668 260.99182469 197 268 C196.21367187 268.29777344 195.42734375 268.59554688 194.6171875 268.90234375 C192.74763369 269.60912629 190.87427172 270.30582529 189 271 C189 273.31 189 275.62 189 278 C190.29284912 277.98428955 191.58569824 277.9685791 192.91772461 277.95239258 C236.24041249 277.47206244 236.24041249 277.47206244 251 279.3125 C251.9499585 279.43020752 252.89991699 279.54791504 253.87866211 279.66918945 C259.01840486 280.41738894 263.37636912 281.60529078 268 284 C269.0625 286.0625 269.0625 286.0625 269 288 C266.05807216 290.94192784 262.87809027 290.35537397 258.9296875 290.4140625 C258.13345978 290.43342865 257.33723206 290.4527948 256.51687622 290.4727478 C253.96969366 290.53260474 251.42246605 290.57895279 248.875 290.625 C247.1497197 290.66317421 245.42445857 290.70222561 243.69921875 290.7421875 C239.46630124 290.83831109 235.23329451 290.92231908 231 291 C231.92651367 291.38381836 232.85302734 291.76763672 233.80761719 292.16308594 C240.19612269 294.83662477 246.39614421 297.51412219 252.25 301.25 C253.30703125 301.91515625 254.3640625 302.5803125 255.453125 303.265625 C258 305 258 305 260 307 C259.625 309.625 259.625 309.625 259 312 C257.34765625 312.6796875 257.34765625 312.6796875 255 313 C252.49609375 311.8828125 252.49609375 311.8828125 249.4375 310.125 C242.37311695 306.32132842 234.97137173 303.72808909 227.375 301.1875 C226.24376709 300.80287598 225.11253418 300.41825195 223.94702148 300.02197266 C213.07391562 296.45052029 200.51018318 293.01548566 189 295 C186.43319686 297.84730711 186.43319686 297.84730711 185 301 C182.375 301.5 182.375 301.5 180 301 C178 299 178 299 177.875 295.875 C177.91625 294.92625 177.9575 293.9775 178 293 C177.01 293 176.02 293 175 293 C174.690625 294.134375 174.38125 295.26875 174.0625 296.4375 C173 300 173 300 172 301 C170.33382885 301.04063832 168.66611905 301.042721 167 301 C165.23537317 297.91190305 165 296.76687864 165 293 C164.01 293 163.02 293 162 293 C161.7834375 294.7015625 161.7834375 294.7015625 161.5625 296.4375 C161 300 161 300 160 301 C157.125 301.3125 157.125 301.3125 154 301 C150.91852096 298.13103676 150.86689743 296.33448713 150 292 C134.16 292 118.32 292 102 292 C101.34 294.31 100.68 296.62 100 299 C98 301 98 301 95.5625 301.375 C93 301 93 301 91.1875 299.25 C90 297 90 297 90 293 C89.34 293 88.68 293 88 293 C87.690625 294.134375 87.38125 295.26875 87.0625 296.4375 C86 300 86 300 85 301 C83.33382885 301.04063832 81.66611905 301.042721 80 301 C77 295.25 77 295.25 77 293 C76.34 293 75.68 293 75 293 C74.87625 293.94875 74.7525 294.8975 74.625 295.875 C74 299 74 299 72 301 C69.5625 301.4375 69.5625 301.4375 67 301 C65.02493835 298.39009711 64.0343299 296.10298971 63 293 C48.09456474 292.76580658 33.20504892 293.45919394 18.3125 294 C14.32835878 294.14425839 10.34417949 294.28732358 6.35990906 294.42797852 C3.89663027 294.51497059 1.4334178 294.6038706 -1.02970886 294.69506836 C-4.35287343 294.81262662 -7.6760236 294.9086698 -11 295 C-12.13515045 295.04366699 -13.2703009 295.08733398 -14.43984985 295.13232422 C-15.52293427 295.15955566 -16.60601868 295.18678711 -17.72192383 295.21484375 C-18.69019608 295.24570068 -19.65846832 295.27655762 -20.65608215 295.30834961 C-21.81632149 295.15571655 -21.81632149 295.15571655 -23 295 C-25.38854824 291.41717765 -25.26898802 289.68606967 -25.25 285.4375 C-25.25515625 284.28121094 -25.2603125 283.12492187 -25.265625 281.93359375 C-25 279 -25 279 -23 277 C-20.25895231 276.81193404 -17.61975713 276.74821596 -14.87841797 276.77294922 C-14.03931885 276.77265717 -13.20021973 276.77236511 -12.33569336 276.77206421 C-9.55442056 276.77346067 -6.77341366 276.78903665 -3.9921875 276.8046875 C-2.06690619 276.80841651 -0.14162299 276.81126401 1.78366089 276.81326294 C6.8570477 276.82090824 11.93032044 276.8405644 17.00366211 276.8626709 C22.17820696 276.88311005 27.35277019 276.89226052 32.52734375 276.90234375 C42.68494602 276.92380946 52.84246353 276.95795619 63 277 C63.33 275.02 63.66 273.04 64 271 C63.1028125 270.731875 62.205625 270.46375 61.28125 270.1875 C31.46914954 260.82502217 5.98661796 243.30788622 -8.921875 215.2734375 C-17.25791833 198.74665801 -20.17724853 182.10012889 -20.1875 163.75 C-20.19974609 162.61175781 -20.21199219 161.47351563 -20.22460938 160.30078125 C-20.23813912 152.35431345 -19.41201625 144.81315657 -18 137 C-17.81937012 135.93813477 -17.63874023 134.87626953 -17.45263672 133.78222656 C-13.89982368 113.73156419 -5.87153602 94.71357542 3.03833008 76.52734375 C10.96062691 60.25948108 16.26939899 46.31741702 11.12109375 28.1875 C8.49401574 20.71817715 5.51410722 12.9825744 1.28125 6.27734375 C0 4 0 4 0 0 Z " fill="#1D1D1D" transform="translate(192,81)"/>
<path d="M0 0 C9.08689846 13.63034769 6.39064287 38.92129354 3.61230469 54.08618164 C0.16812838 70.47623118 -6.23089773 84.16991437 -17 97 C-17.68578125 97.85980469 -18.3715625 98.71960938 -19.078125 99.60546875 C-25.0951806 106.79250738 -32.26942277 111.83161977 -40 117 C-40.66 116.67 -41.32 116.34 -42 116 C-41.45730469 114.94941406 -40.91460937 113.89882813 -40.35546875 112.81640625 C-33.21032264 98.8521789 -26.47308238 84.07342267 -31 68 C-31.66 67.67 -32.32 67.34 -33 67 C-33.18433594 67.92296875 -33.36867188 68.8459375 -33.55859375 69.796875 C-37.05578237 85.98717291 -43.49069829 101.12169503 -54 114 C-54.66 114.99 -55.32 115.98 -56 117 C-56.66 117 -57.32 117 -58 117 C-58.2165625 117.56847656 -58.433125 118.13695312 -58.65625 118.72265625 C-64.03875097 127.84474366 -77.46377948 133.42579451 -87 137 C-88.40861051 137.34701171 -89.8259468 137.66060077 -91.25 137.9375 C-94.48695134 138.64118507 -97.6927346 139.389954 -100.875 140.3125 C-101.59429687 140.51488281 -102.31359375 140.71726562 -103.0546875 140.92578125 C-105.26032309 141.87408603 -105.26032309 141.87408603 -105.99462891 144.52563477 C-108 147 -108 147 -109.98678589 147.47706604 C-112.67946008 147.6647949 -115.33205162 147.69253685 -118.03125 147.6640625 C-119.01871216 147.66884613 -120.00617432 147.67362976 -121.02355957 147.67855835 C-123.11158846 147.68196127 -125.19967035 147.67273153 -127.28759766 147.65185547 C-130.48851009 147.62509605 -133.68591573 147.65159064 -136.88671875 147.68359375 C-138.91407026 147.68028972 -140.94141959 147.67388364 -142.96875 147.6640625 C-143.92817505 147.67418365 -144.8876001 147.68430481 -145.87609863 147.69473267 C-148.35340237 147.6509131 -150.59054524 147.5791097 -153 147 C-154.79321289 144.56933594 -154.79321289 144.56933594 -156 142 C-158.46175374 140.799134 -158.46175374 140.799134 -161.33984375 140.2265625 C-162.39743896 139.96302979 -163.45503418 139.69949707 -164.54467773 139.42797852 C-165.66430908 139.16299561 -166.78394043 138.8980127 -167.9375 138.625 C-177.33176287 136.19605752 -185.14151891 133.84316094 -193 128 C-193.86109375 127.39542969 -194.7221875 126.79085937 -195.609375 126.16796875 C-212.37378611 113.69626291 -224.84165294 90.48852251 -229 70 C-229 69.01 -229 68.02 -229 67 C-229.66 67 -230.32 67 -231 67 C-235.3342816 81.06865174 -230.54054415 96.10855324 -224.3125 108.75 C-223.54979779 110.1710608 -222.7797587 111.58822635 -222 113 C-221.32783321 114.33056906 -220.65943024 115.66307293 -220 117 C-235.41412876 112.18308476 -248.02341533 95.78492657 -255.27050781 82.11157227 C-259.06882808 74.64219504 -261.87688534 67.12175607 -264 59 C-264.21269531 58.26394531 -264.42539062 57.52789062 -264.64453125 56.76953125 C-269.39849566 39.63473866 -267.73474008 19.90978601 -263 3 C-261.63458425 5.59256156 -260.62702702 8.0651551 -259.8125 10.875 C-254.3053049 27.56180115 -245.07379996 39.03578871 -230 48 C-226.07831623 49.93262833 -222.13706619 51.58886372 -218 53 C-216.42992187 53.54333984 -216.42992187 53.54333984 -214.828125 54.09765625 C-197.1957196 58.2538661 -179.91865504 54.66620525 -164.6875 45.375 C-162.11599154 43.65527849 -160.0003524 42.00035939 -157.83203125 39.7890625 C-156 38 -156 38 -154 38 C-153.62875 37.1028125 -153.62875 37.1028125 -153.25 36.1875 C-151.83153093 33.70517913 -150.30735262 32.63671965 -148 31 C-146.80714485 33.03869789 -145.61959778 35.08006498 -144.4375 37.125 C-143.89766479 38.05832153 -143.89766479 38.05832153 -143.34692383 39.01049805 C-140.12135086 44.65401204 -137.29383318 50.44478932 -134.54296875 56.33203125 C-133.22345057 59.29380521 -133.22345057 59.29380521 -130 60 C-129.72816895 59.12585449 -129.45633789 58.25170898 -129.17626953 57.35107422 C-128.06107159 54.17398685 -126.75003128 51.35644222 -125.1796875 48.3828125 C-124.64472656 47.36445313 -124.10976563 46.34609375 -123.55859375 45.296875 C-123.00300781 44.25015625 -122.44742188 43.2034375 -121.875 42.125 C-121.31167969 41.05507812 -120.74835938 39.98515625 -120.16796875 38.8828125 C-118.78265261 36.25305983 -117.39322404 33.62556917 -116 31 C-115.34 31 -114.68 31 -114 31 C-112.58984375 32.50390625 -112.58984375 32.50390625 -110.9375 34.5625 C-101.40605805 45.68251561 -87.39107503 53.97358084 -72.63037109 55.19628906 C-52.8598652 56.35475983 -35.68785812 52.538834 -20.3125 39.375 C-8.59849461 28.24669488 -3.1654244 15.51537566 0 0 Z " fill="#DFDFDF" transform="translate(449,211)"/>
<path d="M0 0 C3.32340627 1.23839664 4.58404215 1.30215219 7.8828125 0.07421875 C10.80156732 -1.75774198 10.80156732 -1.75774198 13.6328125 -3.98828125 C18.80899879 -7.92578125 18.80899879 -7.92578125 19.8828125 -7.92578125 C19.99496094 -6.28996094 19.99496094 -6.28996094 20.109375 -4.62109375 C21.2251841 8.96471818 24.63096297 21.1845203 30.3203125 33.57421875 C31.09375 35.30671875 31.09375 35.30671875 31.8828125 37.07421875 C31.5528125 37.73421875 31.2228125 38.39421875 30.8828125 39.07421875 C30.40972656 38.69910156 29.93664062 38.32398438 29.44921875 37.9375 C14.4236039 26.30949007 -1.63661592 22.37094053 -20.4921875 24.76171875 C-38.45157319 27.79710788 -53.59694807 38.49060642 -64.1171875 53.07421875 C-69.28106125 61.84053574 -73.0383926 70.93354671 -74.1171875 81.07421875 C-77.0871875 81.07421875 -80.0571875 81.07421875 -83.1171875 81.07421875 C-83.40851563 79.97464844 -83.69984375 78.87507813 -84 77.7421875 C-89.37080044 58.09823994 -98.76765527 42.49892866 -116.90869141 32.04150391 C-130.85144864 24.44003758 -146.36036473 21.98162384 -162.015625 25.1171875 C-171.26956525 27.97262246 -179.89090245 32.65458878 -187.1171875 39.07421875 C-187.7771875 38.74421875 -188.4371875 38.41421875 -189.1171875 38.07421875 C-188.53195313 37.11 -187.94671875 36.14578125 -187.34375 35.15234375 C-179.75812527 21.82570436 -176.95574635 7.20250494 -176.1171875 -7.92578125 C-174.69953756 -6.98976879 -173.28311182 -6.05190205 -171.8671875 -5.11328125 C-170.68382812 -4.33017578 -170.68382812 -4.33017578 -169.4765625 -3.53125 C-167.1171875 -1.92578125 -167.1171875 -1.92578125 -165.1953125 -0.1640625 C-163.10741171 1.3428644 -163.10741171 1.3428644 -160.2421875 0.91015625 C-156.02436083 -0.21811239 -152.13027871 -1.87074514 -148.1171875 -3.57421875 C-137.67177842 -7.43413613 -126.32125146 -8.61525785 -115.3046875 -9.61328125 C-114.61575409 -9.67615326 -113.92682068 -9.73902527 -113.2170105 -9.80380249 C-77.67735314 -12.95524349 -32.73247931 -16.28736621 0 0 Z " fill="#E1E1E1" transform="translate(396.1171875,116.92578125)"/>
<path d="M0 0 C9.31131919 8.87719016 16.43845981 19.9291528 17.05859375 33.0078125 C17.38686202 48.72999453 15.44892577 59.96777495 5.6875 72.75 C5.089375 73.56339844 4.49125 74.37679687 3.875 75.21484375 C-3.8234132 84.13675476 -15.16637797 89.90963216 -26.82080078 90.98046875 C-38.5236735 91.729719 -48.84865859 91.50739746 -59.3125 85.75 C-60.12589844 85.30398437 -60.93929688 84.85796875 -61.77734375 84.3984375 C-74.98450553 76.31610602 -83.27204243 63.91183026 -87 49 C-88.47582083 33.65146336 -85.76323222 20.48448155 -76.2734375 8.0859375 C-67.16570416 -2.5665704 -56.40223964 -8.98850663 -42.6875 -12.0625 C-26.39036349 -12.96789647 -12.81501001 -10.97042523 0 0 Z " fill="#E0E0E0" transform="translate(420.3125,164.25)"/>
<path d="M0 0 C14.50897232 7.39050778 23.45805507 18.54008864 28.828125 33.86987305 C32.6423097 47.51725122 30.55077807 60.88139885 23.99609375 73.32299805 C22.58500782 75.51222898 21.09013164 77.53320802 19.453125 79.55737305 C19.00324219 80.16709961 18.55335938 80.77682617 18.08984375 81.4050293 C11.11805326 90.34070443 0.59222454 96.54373759 -10.546875 98.55737305 C-14.13430961 98.91966292 -17.69234233 99.03477509 -21.296875 99.05737305 C-22.15966064 99.06373779 -23.02244629 99.07010254 -23.91137695 99.07666016 C-37.1479307 98.81508816 -48.79828326 93.33252295 -58.421875 84.30737305 C-62.87120528 79.56034797 -65.84428787 74.44720578 -68.546875 68.55737305 C-68.96066406 67.70530273 -69.37445313 66.85323242 -69.80078125 65.9753418 C-74.80177589 54.35282116 -73.89877069 39.24957712 -69.39453125 27.5690918 C-62.52300385 12.58878137 -50.67022185 2.55712704 -35.546875 -3.44262695 C-24.81283639 -7.02063982 -9.93894494 -4.72377086 0 0 Z " fill="#DFDFDF" transform="translate(270.546875,156.442626953125)"/>
<path d="M0 0 C3.73178285 3.31231889 5.81480928 7.38743106 8.015625 11.7890625 C8.17239275 14.48561696 8.27398815 17.16036227 8.33203125 19.859375 C8.35281235 20.65560272 8.37359344 21.45183044 8.39500427 22.27218628 C8.46046649 24.81938935 8.51936915 27.36669675 8.578125 29.9140625 C8.6213134 31.63933377 8.66492779 33.36459443 8.70898438 35.08984375 C8.81614445 39.32280935 8.91742123 43.55588003 9.015625 47.7890625 C11.325625 48.4490625 13.635625 49.1090625 16.015625 49.7890625 C16.015625 54.7390625 16.015625 59.6890625 16.015625 64.7890625 C2.70884913 68.59099846 2.70884913 68.59099846 -2.921875 65.84375 C-6.4086628 63.17836894 -7.35655361 60.98629536 -7.984375 56.7890625 C-8.60183594 57.33175781 -9.21929687 57.87445313 -9.85546875 58.43359375 C-17.63045015 65.00150041 -24.12526044 68.46625686 -34.44140625 68.06640625 C-42.85498499 67.14879628 -49.47115297 64.41033405 -54.984375 57.7890625 C-57.90991569 52.10051115 -57.61370013 46.02724784 -56.984375 39.7890625 C-53.29719915 31.84745298 -46.48241365 28.30926659 -38.86328125 24.8046875 C-32.85888297 22.68644659 -26.83041429 22.6518269 -20.546875 22.7265625 C-19.44956055 22.73333008 -19.44956055 22.73333008 -18.33007812 22.74023438 C-16.54814081 22.75188102 -14.76624637 22.76981059 -12.984375 22.7890625 C-13.16487799 17.72697833 -13.16487799 17.72697833 -16.109375 13.87890625 C-28.05266957 9.35148888 -40.84749703 14.33431131 -51.984375 18.7890625 C-51.984375 13.1790625 -51.984375 7.5690625 -51.984375 1.7890625 C-36.38006641 -7.29699061 -15.78727327 -11.20565201 0 0 Z " fill="#1C1C1C" transform="translate(442.984375,421.2109375)"/>
<path d="M0 0 C7.3688868 5.27279003 10.06723291 10.82512109 13.25 19.3125 C13.25 25.2525 13.25 31.1925 13.25 37.3125 C-2.59 37.3125 -18.43 37.3125 -34.75 37.3125 C-31.5417952 45.38675162 -31.5417952 45.38675162 -24.75 49.5625 C-14.48521275 51.92795837 -5.70679129 49.75327304 3.9765625 46.40625 C7.25 45.3125 7.25 45.3125 9.25 45.3125 C9.25 50.5925 9.25 55.8725 9.25 61.3125 C-3.55140266 68.16395494 -15.98036415 70.53677444 -30.5 67.3125 C-39.35975753 64.48688434 -46.90044641 58.65884731 -51.6015625 50.62890625 C-56.6569937 40.43206712 -58.1264028 27.64766332 -54.578125 16.6953125 C-53.14395948 13.73087758 -51.59463491 11.0376289 -49.75 8.3125 C-49.34394531 7.68988281 -48.93789062 7.06726563 -48.51953125 6.42578125 C-37.4496838 -8.57329532 -14.77235927 -9.0508445 0 0 Z " fill="#1D1D1D" transform="translate(290.75,420.6875)"/>
<path d="M0 0 C7.89779128 -1.20209172 16.23737589 -2.31422132 24 0 C30.4067363 4.75832865 34.37949969 12.017048 38 19 C41.60150857 15.74682387 43.56146115 12.95952943 45.77783203 8.58056641 C47.71033505 5.04478811 49.54824638 2.19115632 53 0 C60.81759209 -1.78544067 69.0971312 -0.85880232 77 0 C73.56238912 5.25221137 70.05476793 10.36778429 66.1875 15.3125 C65.33055 16.42173661 64.47378372 17.53111517 63.6171875 18.640625 C61.86861689 20.89422163 60.09979189 23.13013709 58.3203125 25.359375 C57.48410764 26.42687396 56.64815976 27.49457428 55.8125 28.5625 C55.05582031 29.51253906 54.29914063 30.46257812 53.51953125 31.44140625 C51.7673812 33.79136705 51.7673812 33.79136705 52.25683594 35.95898438 C53.52950154 39.4542158 56.08581492 42.1093368 58.4375 44.9375 C59.52829002 46.27527065 60.61811645 47.61382751 61.70703125 48.953125 C62.25697754 49.62666016 62.80692383 50.30019531 63.37353516 50.99414062 C65.83242501 54.02659921 68.23717638 57.09892634 70.625 60.1875 C71.42164063 61.21230469 72.21828125 62.23710937 73.0390625 63.29296875 C74.64705584 65.51276832 75.82477854 67.54786151 77 70 C57.08189934 72.87209487 57.08189934 72.87209487 50.48925781 68.23339844 C45.78885313 63.4453697 42.21179945 57.86864435 39 52 C35.33059263 55.51326237 32.2669001 59.13972671 29.25 63.25 C25.05555556 68.94444444 25.05555556 68.94444444 24 70 C22.29227642 70.08713831 20.58101351 70.10700007 18.87109375 70.09765625 C17.31938477 70.09282227 17.31938477 70.09282227 15.73632812 70.08789062 C14.64771484 70.07951172 13.55910156 70.07113281 12.4375 70.0625 C10.7987793 70.05573242 10.7987793 70.05573242 9.12695312 70.04882812 C6.41791505 70.03699826 3.70898401 70.02051543 1 70 C2.39194763 67.02447188 4.01567676 64.47250885 5.9765625 61.83984375 C6.56163574 61.0506958 7.14670898 60.26154785 7.74951172 59.44848633 C8.36842285 58.61986084 8.98733398 57.79123535 9.625 56.9375 C10.8908783 55.23195881 12.1565044 53.5262304 13.421875 51.8203125 C14.03482422 50.99563477 14.64777344 50.17095703 15.27929688 49.32128906 C18.55287198 44.90512106 21.77746359 40.45350528 25 36 C21.63576981 30.70749153 18.02868714 25.64348895 14.1875 20.6875 C13.76500977 20.14222656 13.34251953 19.59695313 12.90722656 19.03515625 C12.04213791 17.92000802 11.17673896 16.80510043 10.31103516 15.69042969 C8.15272281 12.9075331 6.0069786 10.11561741 3.875 7.3125 C2.75738281 5.85263672 2.75738281 5.85263672 1.6171875 4.36328125 C0 2 0 2 0 0 Z " fill="#1D1D1D" transform="translate(305,417)"/>
<path d="M0 0 C7.26 0 14.52 0 22 0 C22 24.09 22 48.18 22 73 C35.53 73 49.06 73 63 73 C63 79.6 63 86.2 63 93 C42.21 93 21.42 93 0 93 C0 62.31 0 31.62 0 0 Z " fill="#1B1B1B" transform="translate(167,394)"/>
<path d="M0 0 C8.09692668 4.04846334 12.46420597 8.67841194 16.5 16.75 C17.81562684 34.05989024 17.81562684 34.05989024 13.109375 40.89453125 C7.32230702 47.56651496 0.73830535 52.97571104 -8.26953125 54.09375 C-16.78564055 54.37334866 -22.96143642 51.73812984 -29.63671875 46.56640625 C-35.53144996 40.81997016 -37.66449589 33.64034873 -37.875 25.625 C-37.90579579 17.58729975 -36.14116451 12.56312916 -30.59765625 6.7578125 C-21.87893188 -1.30826264 -11.55288187 -4.05912066 0 0 Z " fill="#1C1C1C" transform="translate(268.5,178.25)"/>
<path d="M0 0 C5.50674704 4.10991365 11.39582712 10.18464494 12.6015625 17.1953125 C13.41735222 27.93431482 12.46319722 35.61970837 5.6640625 44.0703125 C1.0996676 49.02365333 -4.16448837 51.75413895 -10.91015625 52.45703125 C-19.64248699 52.81022175 -25.75360148 50.46631798 -32.6484375 45.1953125 C-38.65284991 39.57518248 -41.55739226 31.82316371 -42.0859375 23.6953125 C-41.67146321 15.73970868 -37.85335051 8.04726044 -32.0234375 2.6328125 C-23.05831879 -3.95975853 -9.83963692 -5.98752374 0 0 Z " fill="#1C1C1C" transform="translate(390.3984375,179.8046875)"/>
<path d="M0 0 C3.11808981 1.44565982 5.74062634 3.20806349 8.5 5.25 C27.84494714 18.86521206 51.44257821 21.92241479 74.51806641 17.97314453 C86.50956078 15.56590234 96.61716073 10.33629545 107 4 C107 8.50172756 105.61072021 10.83148059 102.625 14 C92.63051936 23.30337294 77.691771 29.68059632 64 30 C62.83082031 30.05027344 61.66164063 30.10054688 60.45703125 30.15234375 C41.7251987 30.72799362 23.1244335 26.80563547 8.7734375 14.015625 C5.31302995 10.66846715 2.02615181 7.43220709 0 3 C0 2.01 0 1.02 0 0 Z " fill="#1E1E1E" transform="translate(261,304)"/>
<path d="M0 0 C0.57414753 5.51181627 -0.35440925 8.69797535 -3.5234375 13.265625 C-6.29813939 16.52479864 -9.04414881 17.73081491 -13.2421875 18.30859375 C-17.04736437 18.51444758 -19.29874078 18.44470097 -22.5625 16.375 C-24.45045796 13.25576511 -24.58675681 11.59388548 -24 8 C-21.11144358 3.46083991 -18.52058286 1.60013878 -13.375 0.375 C-8.90628369 -0.12152403 -4.49096721 -0.07987886 0 0 Z " fill="#DCDCDC" transform="translate(431,456)"/>
<path d="M0 0 C4.42729482 2.17339928 7.00900931 4.46496565 9 9 C9 10.65 9 12.3 9 14 C-0.24 14 -9.48 14 -19 14 C-17.86486486 6.05405405 -17.86486486 6.05405405 -13 2 C-8.73999095 -0.84000604 -5.00058053 -0.63091437 0 0 Z " fill="#DDDDDD" transform="translate(275,431)"/>
<path d="M0 0 C0.99 0.33 1.98 0.66 3 1 C3.84437321 4.70434697 4.19186639 8.20193757 4.25 12 C4.28867187 13.5159375 4.28867187 13.5159375 4.328125 15.0625 C3.94914807 18.45524588 3.10433217 20.32533481 1 23 C-2 23 -2 23 -7 22 C-4.69 14.74 -2.38 7.48 0 0 Z " fill="#232323" transform="translate(416,278)"/>
<path d="M0 0 C2 3 2 3 1.8125 6.5625 C1 10 1 10 -2 12 C-7.44444444 11.55555556 -7.44444444 11.55555556 -10 9 C-10.375 5.5625 -10.375 5.5625 -10 2 C-7.01983499 -1.66789539 -4.31348256 -1.31279904 0 0 Z " fill="#D4D4D4" transform="translate(388,191)"/>
<path d="M0 0 C2 2 2 2 2.3125 5.4375 C2 9 2 9 0.8125 10.9375 C-1.66049093 12.38718434 -3.17884512 12.42317323 -6 12 C-7.8125 10.9375 -7.8125 10.9375 -9 9 C-9.37142345 5.5333811 -9.61178961 3.08762598 -7.875 0 C-5.01126853 -1.52732345 -3.04699809 -0.84278671 0 0 Z " fill="#DADADA" transform="translate(270,191)"/>
<path d="M0 0 C2.23574822 2.23574822 3.24368358 4.28966629 4.625 7.125 C5.07101563 8.03507812 5.51703125 8.94515625 5.9765625 9.8828125 C6.31429687 10.58148438 6.65203125 11.28015625 7 12 C2.91894938 10.45657029 -0.41572782 8.50065501 -4 6 C-2.25 1.125 -2.25 1.125 0 0 Z " fill="#D8D8D8" transform="translate(222,316)"/>
<path d="M0 0 C0 5.28 0 10.56 0 16 C-0.66 15.67 -1.32 15.34 -2 15 C-2.37890625 12.34765625 -2.37890625 12.34765625 -2.5625 9.0625 C-2.69515503 4.87751203 -2.69515503 4.87751203 -4 1 C-2 0 -2 0 0 0 Z " fill="#222222" transform="translate(300,466)"/>
<path d="M0 0 C2.39073445 3.82517513 2.55966552 7.59665524 3 12 C1.68 11.67 0.36 11.34 -1 11 C-1.33 12.32 -1.66 13.64 -2 15 C-2.22577402 9.5814234 -1.46670113 5.22512279 0 0 Z " fill="#D7D7D7" transform="translate(186,214)"/>
<path d="M0 0 C3.36591866 1.44253657 5.51047079 3.33264727 8 6 C6.68 6.99 5.36 7.98 4 9 C0 3.375 0 3.375 0 0 Z " fill="#252525" transform="translate(261,304)"/>
<path d="M0 0 C0.66 0.33 1.32 0.66 2 1 C1.65120368 4.25543229 0.97866739 5.01873107 -1.5625 7.25 C-2.7690625 8.11625 -2.7690625 8.11625 -4 9 C-4.66 8.67 -5.32 8.34 -6 8 C-2.25 1.125 -2.25 1.125 0 0 Z " fill="#C9C9C9" transform="translate(213,147)"/>
<path d="M0 0 C1.32 0 2.64 0 4 0 C4.99 2.97 5.98 5.94 7 9 C1.21538462 5.67692308 1.21538462 5.67692308 0.125 2.25 C0.08375 1.5075 0.0425 0.765 0 0 Z " fill="#C9C9C9" transform="translate(421,147)"/>
<path d="M0 0 C1.98 0 3.96 0 6 0 C4.02 2.97 4.02 2.97 2 6 C1.34 5.34 0.68 4.68 0 4 C0 2.68 0 1.36 0 0 Z " fill="#D7D7D7" transform="translate(256,458)"/>
<path d="M0 0 C2.4375 0.8125 2.4375 0.8125 5 2 C5.33 2.99 5.66 3.98 6 5 C3.03 4.505 3.03 4.505 0 4 C-0.33 3.01 -0.66 2.02 -1 1 C-0.67 0.67 -0.34 0.34 0 0 Z " fill="#D5D5D5" transform="translate(424,434)"/>
<path d="M0 0 C0.66 1.32 1.32 2.64 2 4 C1.071875 4.268125 0.14375 4.53625 -0.8125 4.8125 C-3.76240366 5.91148371 -5.05615186 6.62418561 -7 9 C-7.33 8.01 -7.66 7.02 -8 6 C-5.36 4.02 -2.72 2.04 0 0 Z " fill="#D7D7D7" transform="translate(412,111)"/>
<path d="M0 0 C0.66 0 1.32 0 2 0 C2.33 1.65 2.66 3.3 3 5 C2.34 5 1.68 5 1 5 C0.67 5.99 0.34 6.98 0 8 C-0.38063221 5.6739143 -0.71269945 3.33944736 -1 1 C-0.67 0.67 -0.34 0.34 0 0 Z " fill="#DBDBDB" transform="translate(460,201)"/>
<path d="M0 0 C2.52349243 3.12432397 4.27256146 6.38060496 6 10 C3.525 9.01 3.525 9.01 1 8 C0.67 5.36 0.34 2.72 0 0 Z " fill="#CDCDCD" transform="translate(223,318)"/>
<path d="M0 0 C1.32 0.33 2.64 0.66 4 1 C4 1.66 4 2.32 4 3 C1.625 4.6875 1.625 4.6875 -1 6 C-1.66 5.67 -2.32 5.34 -3 5 C-2.01 3.35 -1.02 1.7 0 0 Z " fill="#D9D9D9" transform="translate(208,172)"/>
<path d="M0 0 C0.99 0 1.98 0 3 0 C3 1.65 3 3.3 3 5 C2.01 5.33 1.02 5.66 0 6 C-1.125 2.25 -1.125 2.25 0 0 Z " fill="#C1C1C1" transform="translate(367,374)"/>
<path d="M0 0 C0 0.99 0 1.98 0 3 C-4.22857143 7 -4.22857143 7 -8 7 C-8 6.34 -8 5.68 -8 5 C-6.25 3.7109375 -6.25 3.7109375 -4 2.375 C-3.2575 1.92898437 -2.515 1.48296875 -1.75 1.0234375 C-1.1725 0.68570313 -0.595 0.34796875 0 0 Z " fill="#282828" transform="translate(412,95)"/>
<path d="M0 0 C1.65 0 3.3 0 5 0 C4.25 5.75 4.25 5.75 2 8 C2.33 5.69 2.66 3.38 3 1 C2.01 0.67 1.02 0.34 0 0 Z " fill="#323232" transform="translate(439,81)"/>
<path d="M0 0 C0 0.99 0 1.98 0 3 C-0.66 3.66 -1.32 4.32 -2 5 C-3.32 4.01 -4.64 3.02 -6 2 C-4.02 1.34 -2.04 0.68 0 0 Z M-6 4 C-4 5 -4 5 -4 5 Z " fill="#C9C9C9" transform="translate(425,485)"/>
<path d="M0 0 C0 2.31 0 4.62 0 7 C-0.45375 6.505 -0.9075 6.01 -1.375 5.5 C-2.87635519 3.77390663 -2.87635519 3.77390663 -5 4 C-4.67 3.01 -4.34 2.02 -4 1 C-1 0 -1 0 0 0 Z " fill="#C6C6C6" transform="translate(431,456)"/>
<path d="M0 0 C0.66 0.99 1.32 1.98 2 3 C1.34 3 0.68 3 0 3 C0.33 3.99 0.66 4.98 1 6 C-0.65 6.66 -2.3 7.32 -4 8 C-2.68 5.36 -1.36 2.72 0 0 Z " fill="#CFCFCF" transform="translate(411,320)"/>
</svg>
